<svg width="28" height="28" viewBox="0 0 28 28" fill="none" xmlns="http://www.w3.org/2000/svg">
<path d="M24.4 21.2561C22.5661 19.7563 20.368 18.7392 18.0156 18.3021C15.3698 17.7381 12.6302 17.7381 9.98445 18.3021C7.63204 18.7392 5.43394 19.7563 3.60001 21.2561M3.60001 6.06412C5.43394 7.56396 7.63204 8.58099 9.98445 9.01812C11.3026 9.30424 12.6495 9.44579 14 9.44012C15.3505 9.44579 16.6974 9.30424 18.0156 9.01812C20.368 8.58099 22.5661 7.56396 24.4 6.06412M27 13.6601C27 16.164 26.2376 18.6117 24.8091 20.6936C23.3806 22.7756 21.3503 24.3982 18.9749 25.3564C16.5994 26.3146 13.9856 26.5653 11.4638 26.0768C8.94208 25.5884 6.6257 24.3826 4.80762 22.6121C2.98953 20.8415 1.7514 18.5858 1.2498 16.13C0.748189 13.6742 1.00563 11.1287 1.98957 8.81534C2.97351 6.50203 4.63975 4.52481 6.77759 3.13372C8.91543 1.74262 11.4288 1.00012 14 1.00012C17.4478 1.00012 20.7544 2.33394 23.1924 4.70815C25.6304 7.08236 27 10.3025 27 13.6601Z" stroke="#790252" stroke-width="2" stroke-linecap="round" stroke-linejoin="round"/>
<path d="M14 26.32C16.1539 26.32 17.9 20.6519 17.9 13.66C17.9 6.66807 16.1539 1 14 1C11.8461 1 10.1 6.66807 10.1 13.66C10.1 20.6519 11.8461 26.32 14 26.32Z" stroke="#570A57" stroke-width="2" stroke-linecap="round" stroke-linejoin="round"/>
</svg>
