<svg width="34" height="33" viewBox="0 0 34 33" fill="none" xmlns="http://www.w3.org/2000/svg">
<path d="M9.91669 13.7896C10.5845 13.75 11.4079 13.75 12.4667 13.75H21.5334C22.5922 13.75 23.4155 13.75 24.0834 13.7896M9.91669 13.7896C9.08323 13.839 8.49193 13.9501 7.98723 14.1996C7.18754 14.5951 6.53737 15.2261 6.12991 16.0022C5.66669 16.8847 5.66669 18.0397 5.66669 20.35V22.275C5.66669 24.5853 5.66669 25.7403 6.12991 26.6227C6.53737 27.3989 7.18754 28.0299 7.98723 28.4254C8.89635 28.875 10.0865 28.875 12.4667 28.875H21.5334C23.9136 28.875 25.1036 28.875 26.0129 28.4254C26.8126 28.0299 27.4627 27.3989 27.8701 26.6227C28.3334 25.7403 28.3334 24.5853 28.3334 22.275V20.35C28.3334 18.0397 28.3334 16.8847 27.8701 16.0022C27.4627 15.2261 26.8126 14.5951 26.0129 14.1996C25.5081 13.9501 24.9168 13.839 24.0834 13.7896M9.91669 13.7896V11C9.91669 7.20305 13.088 4.125 17 4.125C20.912 4.125 24.0834 7.20305 24.0834 11V13.7896" stroke="#790252" stroke-width="3" stroke-linecap="round" stroke-linejoin="round"/>
</svg>
