<svg width="88" height="100" viewBox="0 0 88 100" fill="none" xmlns="http://www.w3.org/2000/svg">
<g clip-path="url(#clip0_27_1530)">
<path d="M44 100C19.7399 100 0 80.2548 0 55.9807V0H88V55.9807C88 80.2548 68.2601 100 44 100ZM7.14189 7.14503V55.9807C7.14189 76.3139 23.6757 92.855 44 92.855C64.3243 92.855 80.8581 76.3139 80.8581 55.9807V7.14503H7.14189Z" fill="#790252"/>
<path d="M52.473 80.4711H48.902C48.902 69.2567 73.6182 68.3982 76.4358 68.3374L76.5135 71.9099C70.277 72.0485 52.473 73.9176 52.473 80.4711Z" fill="#790252"/>
<path d="M45.4831 78.9603H41.9122C41.9122 75.1648 43.2737 71.937 45.9628 69.3649C53.5642 62.0881 69.3108 62.6897 69.9831 62.7235L69.8277 66.296C69.6824 66.2892 54.9223 65.7316 48.4291 71.9539C46.4493 73.8534 45.4865 76.1449 45.4865 78.9637L45.4831 78.9603Z" fill="#790252"/>
<path d="M38.4899 80.4711H34.9189C34.9189 73.9176 17.1149 72.0451 10.8784 71.9099L10.9561 68.3374C13.7737 68.3982 38.4899 69.2601 38.4899 80.4711Z" fill="#790252"/>
<path d="M45.4831 78.9604H41.9121C41.9121 76.1416 40.9493 73.85 38.9696 71.9505C32.4763 65.7282 17.7196 66.2859 17.5709 66.2927L17.4155 62.7201C18.0811 62.6897 33.8344 62.0847 41.4358 69.3616C44.1216 71.9336 45.4865 75.1614 45.4865 78.957L45.4831 78.9604Z" fill="#790252"/>
<path d="M52.8176 78.9603H34.5777V83.9591H52.8176V78.9603Z" fill="#790252"/>
<path d="M70.6352 35.3905V22.3307C70.6352 19.8803 68.6419 17.8862 66.1926 17.8862H61.2129C58.7635 17.8862 56.7703 19.8803 56.7703 22.3307V29.0026C56.7703 30.216 55.7838 31.2063 54.5676 31.2063H52.6115C51.0574 28.0326 47.8074 25.839 44.0338 25.839C42.6689 25.839 41.3716 26.1297 40.196 26.6468V23.703C40.196 21.2526 38.2027 19.2584 35.7534 19.2584H26.2027C25.5845 15.6859 22.473 12.9584 18.7331 12.9584C14.5473 12.9584 11.1419 16.3653 11.1419 20.5529C11.1419 24.2978 13.8683 27.4107 17.4392 28.0292V29.6583C17.4392 32.1087 19.4324 34.1028 21.8818 34.1028H34.5777C34.5203 34.5287 34.4797 34.9579 34.4797 35.3973C34.4797 36.8439 34.8108 38.2093 35.3851 39.4362H21.8818C19.4324 39.4362 17.4392 41.4303 17.4392 43.8807V45.0738C15.2264 45.6518 13.5811 47.6493 13.5811 50.0422C13.5811 52.8847 15.8919 55.1965 18.7331 55.1965C21.5743 55.1965 23.8851 52.8847 23.8851 50.0422C23.8851 47.6493 22.2399 45.6518 20.027 45.0738V43.8807C20.027 42.8566 20.8581 42.0252 21.8818 42.0252H36.875C38.0304 44.1849 39.6351 47.9535 39.6351 52.2662C39.6351 54 40.6487 55.4872 42.1047 56.2037V73.752H45.8885V56.2477C47.3885 55.548 48.4358 54.0338 48.4358 52.2696C48.4358 48.4672 49.6858 45.084 50.7737 42.8533H63.1723C63.7703 45.7126 66.3074 47.8656 69.3412 47.8656C72.8176 47.8656 75.6453 45.0367 75.6453 41.5588C75.6453 38.5237 73.4933 35.9888 70.6352 35.3871V35.3905ZM21.3007 50.049C21.3007 51.4618 20.1487 52.6143 18.7365 52.6143C17.3243 52.6143 16.1723 51.4618 16.1723 50.049C16.1723 48.6362 17.3243 47.4837 18.7365 47.4837C20.1487 47.4837 21.3007 48.6328 21.3007 50.049ZM13.7331 20.5563C13.7331 17.7983 15.9764 15.5507 18.7365 15.5507C21.4966 15.5507 23.7399 17.795 23.7399 20.5563C23.7399 23.3177 21.4966 25.5619 18.7365 25.5619C15.9764 25.5619 13.7331 23.3177 13.7331 20.5563ZM21.8818 31.5172C20.8581 31.5172 20.027 30.6858 20.027 29.6617V28.0326C23.1757 27.4884 25.6588 25.0008 26.2027 21.8508H35.7534C36.777 21.8508 37.6081 22.6822 37.6081 23.7063V28.3401C36.6385 29.2257 35.8514 30.3005 35.3074 31.5172H21.8784H21.8818ZM63.1689 40.2677H52.2466C52.2602 40.244 52.277 40.217 52.2906 40.1933C52.3243 40.1426 52.348 40.1088 52.348 40.1088H52.3412C53.1318 38.7197 53.5879 37.1143 53.5879 35.4007C53.5879 34.8531 53.5304 34.3191 53.4426 33.7952H54.5642C57.2061 33.7952 59.3547 31.6456 59.3547 29.0026V22.3307C59.3547 21.3066 60.1858 20.4752 61.2095 20.4752H66.1892C67.2129 20.4752 68.0439 21.3066 68.0439 22.3307V35.3905C65.6047 35.9009 63.6824 37.8274 63.1689 40.2677ZM69.3379 45.28C67.2872 45.28 65.6216 43.6104 65.6216 41.5622C65.6216 39.514 67.2872 37.8443 69.3379 37.8443C71.3885 37.8443 73.0541 39.514 73.0541 41.5622C73.0541 43.6104 71.3852 45.28 69.3379 45.28Z" fill="#790252"/>
</g>
<defs>
<clipPath id="clip0_27_1530">
<rect width="88" height="100" fill="white"/>
</clipPath>
</defs>
</svg>
