<svg width="40" height="40" viewBox="0 0 40 40" fill="none" xmlns="http://www.w3.org/2000/svg">
<path d="M5 13.3333L14.0832 19.3888C16.2216 20.8143 17.2908 21.5271 18.4463 21.8041C19.4677 22.0488 20.5323 22.0488 21.5537 21.8041C22.7092 21.5271 23.7785 20.8143 25.9168 19.3888L35 13.3333M10.3333 31.6666H29.6667C31.5335 31.6666 32.467 31.6666 33.18 31.3033C33.8072 30.9838 34.3172 30.4738 34.6367 29.8466C35 29.1336 35 28.2001 35 26.3333V13.6666C35 11.7998 35 10.8664 34.6367 10.1533C34.3172 9.52613 33.8072 9.0162 33.18 8.69663C32.467 8.33331 31.5335 8.33331 29.6667 8.33331H10.3333C8.4665 8.33331 7.53307 8.33331 6.82003 8.69663C6.19282 9.0162 5.68288 9.52613 5.36332 10.1533C5 10.8664 5 11.7998 5 13.6666V26.3333C5 28.2001 5 29.1336 5.36332 29.8466C5.68288 30.4738 6.19282 30.9838 6.82003 31.3033C7.53307 31.6666 8.46648 31.6666 10.3333 31.6666Z" stroke="#790252" stroke-width="3" stroke-linecap="round" stroke-linejoin="round"/>
</svg>
