<svg width="41" height="47" viewBox="0 0 41 47" fill="none" xmlns="http://www.w3.org/2000/svg">
<g clip-path="url(#clip0_158_254)">
<path d="M20.5 47C9.19698 47 0 37.7198 0 26.3109V0H41V26.3109C41 37.7198 31.803 47 20.5 47ZM3.32747 3.35816V26.3109C3.32747 35.8675 11.0307 43.6418 20.5 43.6418C29.9693 43.6418 37.6725 35.8675 37.6725 26.3109V3.35816H3.32747Z" fill="#790252"/>
<path d="M24.4477 37.8214H22.7839C22.7839 32.5507 34.2994 32.1472 35.6122 32.1186L35.6484 33.7977C32.7427 33.8628 24.4477 34.7413 24.4477 37.8214Z" fill="#790252"/>
<path d="M21.191 37.1114H19.5272C19.5272 35.3274 20.1616 33.8104 21.4145 32.6015C24.956 29.1814 32.2925 29.4641 32.6057 29.48L32.5333 31.1591C32.4656 31.1559 25.5888 30.8938 22.5635 33.8183C21.6411 34.7111 21.1925 35.7881 21.1925 37.1129L21.191 37.1114Z" fill="#790252"/>
<path d="M17.9328 37.8214H16.2691C16.2691 34.7413 7.97399 33.8612 5.06836 33.7977L5.10456 32.1186C6.41729 32.1472 17.9328 32.5523 17.9328 37.8214Z" fill="#790252"/>
<path d="M21.1909 37.1114H19.5272C19.5272 35.7865 19.0786 34.7095 18.1562 33.8167C15.131 30.8923 8.25568 31.1544 8.18642 31.1575L8.11401 29.4785C8.4241 29.4642 15.7637 29.1798 19.3053 32.5999C20.5566 33.8088 21.1925 35.3259 21.1925 37.1098L21.1909 37.1114Z" fill="#790252"/>
<path d="M24.6082 37.1114H16.1101V39.4608H24.6082V37.1114Z" fill="#790252"/>
<path d="M32.9096 16.6335V10.4954C32.9096 9.34376 31.9809 8.40652 30.8398 8.40652H28.5197C27.3785 8.40652 26.4498 9.34376 26.4498 10.4954V13.6312C26.4498 14.2015 25.9902 14.6669 25.4236 14.6669H24.5122C23.7882 13.1753 22.274 12.1443 20.5158 12.1443C19.8799 12.1443 19.2755 12.281 18.7277 12.524V11.1404C18.7277 9.9887 17.799 9.05147 16.6579 9.05147H12.2081C11.9201 7.37239 10.4704 6.09044 8.72798 6.09044C6.77777 6.09044 5.19116 7.69168 5.19116 9.65988C5.19116 11.42 6.46139 12.883 8.12513 13.1737V13.9394C8.12513 15.0911 9.0538 16.0283 10.195 16.0283H16.1101C16.0834 16.2285 16.0645 16.4302 16.0645 16.6367C16.0645 17.3166 16.2187 17.9584 16.4863 18.535H10.195C9.0538 18.535 8.12513 19.4723 8.12513 20.624V21.1847C7.09415 21.4563 6.3276 22.3952 6.3276 23.5199C6.3276 24.8558 7.40423 25.9424 8.72798 25.9424C10.0517 25.9424 11.1284 24.8558 11.1284 23.5199C11.1284 22.3952 10.3618 21.4563 9.33083 21.1847V20.624C9.33083 20.1426 9.71804 19.7518 10.195 19.7518H17.1805C17.7188 20.7669 18.4664 22.5381 18.4664 24.5651C18.4664 25.38 18.9386 26.079 19.617 26.4158V34.6634H21.3799V26.4364C22.0788 26.1076 22.5667 25.3959 22.5667 24.5667C22.5667 22.7796 23.1491 21.1895 23.656 20.141H29.4326C29.7112 21.4849 30.8933 22.4968 32.3068 22.4968C33.9264 22.4968 35.2439 21.1672 35.2439 19.5326C35.2439 18.1061 34.2412 16.9147 32.9096 16.632V16.6335ZM9.92423 23.523C9.92423 24.187 9.38749 24.7287 8.72955 24.7287C8.07161 24.7287 7.53487 24.187 7.53487 23.523C7.53487 22.859 8.07161 22.3173 8.72955 22.3173C9.38749 22.3173 9.92423 22.8574 9.92423 23.523ZM6.39843 9.66147C6.39843 8.36522 7.44358 7.30885 8.72955 7.30885C10.0155 7.30885 11.0607 8.36363 11.0607 9.66147C11.0607 10.9593 10.0155 12.0141 8.72955 12.0141C7.44358 12.0141 6.39843 10.9593 6.39843 9.66147ZM10.195 14.8131C9.71804 14.8131 9.33083 14.4223 9.33083 13.941V13.1753C10.7978 12.9196 11.9547 11.7504 12.2081 10.2699H16.6579C17.1348 10.2699 17.522 10.6607 17.522 11.142V13.3199C17.0703 13.7361 16.7035 14.2412 16.4501 14.8131H10.1934H10.195ZM29.431 18.9258H24.3422C24.3485 18.9147 24.3564 18.902 24.3627 18.8909C24.3784 18.867 24.3895 18.8511 24.3895 18.8511H24.3863C24.7546 18.1983 24.9671 17.4437 24.9671 16.6383C24.9671 16.381 24.9404 16.13 24.8994 15.8838H25.422C26.6529 15.8838 27.654 14.8735 27.654 13.6312V10.4954C27.654 10.0141 28.0412 9.62334 28.5181 9.62334H30.8382C31.3151 9.62334 31.7023 10.0141 31.7023 10.4954V16.6335C30.5659 16.8734 29.6703 17.7789 29.431 18.9258ZM32.3052 21.2816C31.3498 21.2816 30.5738 20.4969 30.5738 19.5342C30.5738 18.5716 31.3498 17.7868 32.3052 17.7868C33.2606 17.7868 34.0366 18.5716 34.0366 19.5342C34.0366 20.4969 33.259 21.2816 32.3052 21.2816Z" fill="#790252"/>
</g>
<defs>
<clipPath id="clip0_158_254">
<rect width="41" height="47" fill="white"/>
</clipPath>
</defs>
</svg>
