<svg width="29" height="19" viewBox="0 0 29 19" fill="none" xmlns="http://www.w3.org/2000/svg">
<path d="M14.5 0C4.83333 0 0 8.55 0 9.5C0 10.45 4.83333 19 14.5 19C24.1667 19 29 10.45 29 9.5C29 8.55 24.1667 0 14.5 0ZM14.5 16.15C10.2293 16.15 6.76667 12.7471 6.76667 8.55C6.76667 4.3529 10.2293 0.95 14.5 0.95C18.7707 0.95 22.2333 4.3529 22.2333 8.55C22.2333 12.7471 18.7707 16.15 14.5 16.15ZM14.5 1.9C10.7629 1.9 7.73333 4.8773 7.73333 8.55C7.73333 12.2227 10.7629 15.2 14.5 15.2C18.2371 15.2 21.2667 12.2227 21.2667 8.55C21.2667 4.8773 18.2371 1.9 14.5 1.9ZM14.5 12.35C12.3646 12.35 10.6333 10.6486 10.6333 8.55C10.6333 6.45145 12.3646 4.75 14.5 4.75C16.6354 4.75 18.3667 6.45145 18.3667 8.55C18.3667 10.6486 16.6354 12.35 14.5 12.35Z" fill="#790252"/>
</svg>
