<svg width="623" height="950" viewBox="0 0 623 950" fill="none" xmlns="http://www.w3.org/2000/svg">
<circle cx="572" cy="868" r="51" fill="#570A57"/>
<circle cx="91" cy="-11" r="91" fill="#A91079"/>
<rect x="239" y="135" width="184" height="47" rx="23.5" transform="rotate(-90 239 135)" fill="#570A57"/>
<rect x="371" y="255" width="509" height="130" rx="65" transform="rotate(-90 371 255)" fill="#570A57"/>
<rect x="318" y="177" width="468" height="115" rx="57.5" transform="rotate(-90 318 177)" stroke="white" stroke-width="6"/>
<rect x="439" y="96" width="468" height="115" rx="57.5" transform="rotate(-90 439 96)" stroke="white" stroke-width="6"/>
<circle cx="6.5" cy="136.5" r="6.5" fill="#790252"/>
<circle cx="6.5" cy="159.5" r="6.5" fill="#790252"/>
<circle cx="6.5" cy="182.5" r="6.5" fill="#790252"/>
<circle cx="6.5" cy="205.5" r="6.5" fill="#790252"/>
<circle cx="29.5" cy="136.5" r="6.5" fill="#790252"/>
<circle cx="29.5" cy="159.5" r="6.5" fill="#790252"/>
<circle cx="29.5" cy="182.5" r="6.5" fill="#790252"/>
<circle cx="29.5" cy="205.5" r="6.5" fill="#790252"/>
<circle cx="52.5" cy="136.5" r="6.5" fill="#790252"/>
<circle cx="52.5" cy="159.5" r="6.5" fill="#790252"/>
<circle cx="52.5" cy="182.5" r="6.5" fill="#790252"/>
<circle cx="52.5" cy="205.5" r="6.5" fill="#790252"/>
<circle cx="98.5" cy="136.5" r="6.5" fill="#790252"/>
<circle cx="98.5" cy="159.5" r="6.5" fill="#790252"/>
<circle cx="98.5" cy="182.5" r="6.5" fill="#790252"/>
<circle cx="98.5" cy="205.5" r="6.5" fill="#790252"/>
<circle cx="75.5" cy="136.5" r="6.5" fill="#790252"/>
<circle cx="75.5" cy="159.5" r="6.5" fill="#790252"/>
<circle cx="75.5" cy="182.5" r="6.5" fill="#790252"/>
<circle cx="75.5" cy="205.5" r="6.5" fill="#790252"/>
<circle cx="121.5" cy="136.5" r="6.5" fill="#790252"/>
<circle cx="121.5" cy="159.5" r="6.5" fill="#790252"/>
<circle cx="121.5" cy="182.5" r="6.5" fill="#790252"/>
<circle cx="121.5" cy="205.5" r="6.5" fill="#790252"/>
<circle cx="108.5" cy="897.5" r="6.5" fill="#790252"/>
<circle cx="108.5" cy="920.5" r="6.5" fill="#790252"/>
<circle cx="108.5" cy="943.5" r="6.5" fill="#790252"/>
<circle cx="131.5" cy="897.5" r="6.5" fill="#790252"/>
<circle cx="131.5" cy="920.5" r="6.5" fill="#790252"/>
<circle cx="131.5" cy="943.5" r="6.5" fill="#790252"/>
<circle cx="154.5" cy="897.5" r="6.5" fill="#790252"/>
<circle cx="154.5" cy="920.5" r="6.5" fill="#790252"/>
<circle cx="154.5" cy="943.5" r="6.5" fill="#790252"/>
<circle cx="177.5" cy="897.5" r="6.5" fill="#790252"/>
<circle cx="177.5" cy="920.5" r="6.5" fill="#790252"/>
<circle cx="177.5" cy="943.5" r="6.5" fill="#790252"/>
<circle cx="74.5" cy="804.5" r="38.5" fill="#A91079"/>
</svg>
