<svg width="29" height="26" viewBox="0 0 29 26" fill="none" xmlns="http://www.w3.org/2000/svg">
<path d="M26.8555 0.431518C26.5835 0.155217 26.2148 0 25.8303 0C25.4458 0 25.0771 0.155217 24.8052 0.431518L2.146 23.4661C2.00751 23.602 1.89705 23.7646 1.82105 23.9445C1.74506 24.1243 1.70506 24.3177 1.70339 24.5134C1.70171 24.7091 1.7384 24.9031 1.81131 25.0843C1.88422 25.2654 1.99188 25.4299 2.12803 25.5683C2.26417 25.7067 2.42607 25.8161 2.60427 25.8902C2.78247 25.9644 2.9734 26.0016 3.16593 25.9999C3.35846 25.9982 3.54873 25.9576 3.72564 25.8803C3.90254 25.8031 4.06254 25.6908 4.1963 25.5501L26.854 2.51552C27.1258 2.23913 27.2785 1.86433 27.2785 1.47352C27.2785 1.08271 27.1273 0.707903 26.8555 0.431518ZM4.5066 18.147L8.2186 14.374C8.11276 13.9209 8.05779 13.4572 8.05475 12.9915C8.05475 9.48528 10.9403 6.64078 14.5 6.64078C14.9147 6.64078 15.3178 6.68794 15.7108 6.76163L17.4551 4.99008C16.4783 4.82561 15.4901 4.74182 14.5 4.73953C4.988 4.73806 0 11.8581 0 12.9915C0 13.615 1.53265 16.0733 4.5066 18.147ZM24.4978 7.84048L20.7829 11.6135C20.8829 12.0586 20.9438 12.517 20.9438 12.9915C20.9438 16.4978 18.0598 19.3393 14.5 19.3393C14.0882 19.3393 13.688 19.2922 13.2979 19.2199L11.5522 20.993C12.4831 21.1462 13.4604 21.2435 14.5 21.2435C24.012 21.2435 29 14.1205 29 12.9915C29 12.3666 27.4688 9.91121 24.4978 7.84048Z" fill="#790252"/>
</svg>
