<svg width="54" height="195" viewBox="0 0 54 195" fill="none" xmlns="http://www.w3.org/2000/svg">
<rect width="54" height="55" rx="10" fill="#252525"/>
<path fill-rule="evenodd" clip-rule="evenodd" d="M13 19.1667C13 16.8655 14.8804 15 17.2 15H36.8C39.1197 15 41 16.8655 41 19.1667V31.6667C41 33.9679 39.1197 35.8333 36.8 35.8333H28.4V37.2222H31.2C31.9732 37.2222 32.6 37.844 32.6 38.6111C32.6 39.3782 31.9732 40 31.2 40H22.8C22.0268 40 21.4 39.3782 21.4 38.6111C21.4 37.844 22.0268 37.2222 22.8 37.2222H25.6V35.8333H17.2C14.8804 35.8333 13 33.9679 13 31.6667V19.1667ZM17.2 17.7778C16.4268 17.7778 15.8 18.3996 15.8 19.1667V31.6667C15.8 32.4338 16.4268 33.0556 17.2 33.0556H36.8C37.5732 33.0556 38.2 32.4338 38.2 31.6667V19.1667C38.2 18.3996 37.5732 17.7778 36.8 17.7778H17.2Z" fill="#790252"/>
<rect y="70" width="54" height="55" rx="10" fill="#252525"/>
<path d="M35.375 106.5C35.9963 106.5 36.5 105.996 36.5 105.375C36.5 104.754 35.9963 104.25 35.375 104.25C34.7537 104.25 34.25 104.754 34.25 105.375C34.25 105.996 34.7537 106.5 35.375 106.5Z" fill="#790252"/>
<path d="M32.0001 104.25H18.5001V106.5H32.0001V104.25Z" fill="#790252"/>
<path d="M35.375 90.7501C35.9963 90.7501 36.5 90.2464 36.5 89.6251C36.5 89.0037 35.9963 88.5001 35.375 88.5001C34.7537 88.5001 34.25 89.0037 34.25 89.6251C34.25 90.2464 34.7537 90.7501 35.375 90.7501Z" fill="#790252"/>
<path d="M32.0001 88.5001H18.5001V90.7501H32.0001V88.5001Z" fill="#790252"/>
<path d="M38.75 95.25C39.3467 95.25 39.919 95.0129 40.341 94.591C40.7629 94.169 41 93.5967 41 93V86.25C41 85.6533 40.7629 85.081 40.341 84.659C39.919 84.2371 39.3467 84 38.75 84H16.25C15.6533 84 15.081 84.2371 14.659 84.659C14.2371 85.081 14 85.6533 14 86.25V93C14 93.5967 14.2371 94.169 14.659 94.591C15.081 95.0129 15.6533 95.25 16.25 95.25H18.5V99.75H16.25C15.6533 99.75 15.081 99.9871 14.659 100.409C14.2371 100.831 14 101.403 14 102V108.75C14 109.347 14.2371 109.919 14.659 110.341C15.081 110.763 15.6533 111 16.25 111H38.75C39.3467 111 39.919 110.763 40.341 110.341C40.7629 109.919 41 109.347 41 108.75V102C41 101.403 40.7629 100.831 40.341 100.409C39.919 99.9871 39.3467 99.75 38.75 99.75H36.5V95.25H38.75ZM16.25 86.25H38.75V93H16.25V86.25ZM38.75 108.75H16.25V102H38.75V108.75ZM34.25 99.75H20.75V95.25H34.25V99.75Z" fill="#790252"/>
<rect y="140" width="54" height="55" rx="10" fill="#252525"/>
<path d="M26.1875 179H17C17 174.494 20.4226 170.766 24.875 170.146M37.8328 171.594C37.7433 171.599 37.6531 171.602 37.5625 171.602C36.2179 171.602 34.9914 171.017 34.0625 170.056C33.1336 171.017 31.9071 171.602 30.5625 171.602C30.4719 171.602 30.3817 171.599 30.2922 171.594C30.183 172.081 30.125 172.593 30.125 173.12C30.125 175.949 31.7982 178.326 34.0625 179C36.3268 178.326 38 175.949 38 173.12C38 172.593 37.942 172.081 37.8328 171.594ZM31.4375 161.111C31.4375 163.934 29.0869 166.222 26.1875 166.222C23.288 166.222 20.9375 163.934 20.9375 161.111C20.9375 158.288 23.288 156 26.1875 156C29.0869 156 31.4375 158.288 31.4375 161.111Z" stroke="#790252" stroke-width="2" stroke-linecap="round" stroke-linejoin="round"/>
</svg>
